<mxfile host="app.diagrams.net" modified="2024-04-05T02:58:33.811Z" agent="Mozilla/5.0 (Windows NT 10.0; Win64; x64) AppleWebKit/537.36 (KHTML, like Gecko) Chrome/123.0.0.0 Safari/537.36" version="24.2.1" etag="9lUuuRaz1FUbhwySJ3oZ" type="device">
  <diagram id="Kps0-m6FUOuHXR2EgUVA" name="Page-1">
    <mxGraphModel dx="1434" dy="780" grid="1" gridSize="10" guides="1" tooltips="1" connect="1" arrows="1" fold="1" page="1" pageScale="1" pageWidth="827" pageHeight="1169" math="0" shadow="0">
      <root>
        <mxCell id="0" />
        <mxCell id="1" parent="0" />
        <mxCell id="RTe3zMk_DoGeZvPEv-I7-1" value="" style="endArrow=none;dashed=1;html=1;rounded=0;strokeWidth=3;strokeColor=#B3B3B3;" edge="1" parent="1">
          <mxGeometry width="50" height="50" relative="1" as="geometry">
            <mxPoint x="40" y="85" as="sourcePoint" />
            <mxPoint x="460" y="85" as="targetPoint" />
          </mxGeometry>
        </mxCell>
        <mxCell id="RTe3zMk_DoGeZvPEv-I7-2" value="" style="ellipse;whiteSpace=wrap;html=1;fillColor=#d5e8d4;strokeColor=#82b366;" vertex="1" parent="1">
          <mxGeometry x="140" y="105" width="20" height="20" as="geometry" />
        </mxCell>
        <mxCell id="RTe3zMk_DoGeZvPEv-I7-27" style="rounded=0;orthogonalLoop=1;jettySize=auto;html=1;exitX=0.5;exitY=1;exitDx=0;exitDy=0;entryX=0;entryY=0;entryDx=0;entryDy=0;" edge="1" parent="1" source="RTe3zMk_DoGeZvPEv-I7-4" target="RTe3zMk_DoGeZvPEv-I7-25">
          <mxGeometry relative="1" as="geometry">
            <mxPoint x="280" y="135" as="targetPoint" />
          </mxGeometry>
        </mxCell>
        <mxCell id="RTe3zMk_DoGeZvPEv-I7-34" style="edgeStyle=orthogonalEdgeStyle;rounded=0;orthogonalLoop=1;jettySize=auto;html=1;exitX=1;exitY=0.5;exitDx=0;exitDy=0;entryX=0;entryY=0.5;entryDx=0;entryDy=0;dashed=1;" edge="1" parent="1" source="RTe3zMk_DoGeZvPEv-I7-4" target="RTe3zMk_DoGeZvPEv-I7-29">
          <mxGeometry relative="1" as="geometry" />
        </mxCell>
        <mxCell id="RTe3zMk_DoGeZvPEv-I7-4" value="" style="ellipse;whiteSpace=wrap;html=1;fillColor=#d5e8d4;strokeColor=#82b366;" vertex="1" parent="1">
          <mxGeometry x="210" y="105" width="20" height="20" as="geometry" />
        </mxCell>
        <mxCell id="RTe3zMk_DoGeZvPEv-I7-9" value="&lt;font style=&quot;font-size: 14px;&quot;&gt;&lt;b&gt;main&lt;/b&gt;&lt;/font&gt;" style="text;html=1;align=center;verticalAlign=middle;whiteSpace=wrap;rounded=0;" vertex="1" parent="1">
          <mxGeometry x="50" y="100" width="60" height="30" as="geometry" />
        </mxCell>
        <mxCell id="RTe3zMk_DoGeZvPEv-I7-10" value="&lt;font style=&quot;font-size: 14px;&quot;&gt;&lt;b&gt;votre branche&lt;/b&gt;&lt;/font&gt;" style="text;html=1;align=center;verticalAlign=middle;resizable=0;points=[];autosize=1;strokeColor=none;fillColor=none;" vertex="1" parent="1">
          <mxGeometry x="50" y="40" width="120" height="30" as="geometry" />
        </mxCell>
        <mxCell id="RTe3zMk_DoGeZvPEv-I7-11" value="" style="endArrow=classic;html=1;rounded=0;exitX=1;exitY=0.5;exitDx=0;exitDy=0;entryX=0;entryY=0.5;entryDx=0;entryDy=0;endFill=1;" edge="1" parent="1" source="RTe3zMk_DoGeZvPEv-I7-2" target="RTe3zMk_DoGeZvPEv-I7-4">
          <mxGeometry width="50" height="50" relative="1" as="geometry">
            <mxPoint x="410" y="415" as="sourcePoint" />
            <mxPoint x="460" y="365" as="targetPoint" />
          </mxGeometry>
        </mxCell>
        <mxCell id="RTe3zMk_DoGeZvPEv-I7-13" style="edgeStyle=orthogonalEdgeStyle;rounded=0;orthogonalLoop=1;jettySize=auto;html=1;exitX=1;exitY=0.5;exitDx=0;exitDy=0;entryX=0;entryY=0.5;entryDx=0;entryDy=0;endArrow=classic;endFill=1;" edge="1" parent="1" source="RTe3zMk_DoGeZvPEv-I7-14" target="RTe3zMk_DoGeZvPEv-I7-16">
          <mxGeometry relative="1" as="geometry" />
        </mxCell>
        <mxCell id="RTe3zMk_DoGeZvPEv-I7-14" value="" style="ellipse;whiteSpace=wrap;html=1;fillColor=#f8cecc;strokeColor=#b85450;" vertex="1" parent="1">
          <mxGeometry x="240" y="45" width="20" height="20" as="geometry" />
        </mxCell>
        <mxCell id="RTe3zMk_DoGeZvPEv-I7-33" style="edgeStyle=orthogonalEdgeStyle;rounded=0;orthogonalLoop=1;jettySize=auto;html=1;exitX=1;exitY=0.5;exitDx=0;exitDy=0;entryX=0;entryY=0.5;entryDx=0;entryDy=0;" edge="1" parent="1" source="RTe3zMk_DoGeZvPEv-I7-16" target="RTe3zMk_DoGeZvPEv-I7-32">
          <mxGeometry relative="1" as="geometry" />
        </mxCell>
        <mxCell id="RTe3zMk_DoGeZvPEv-I7-16" value="" style="ellipse;whiteSpace=wrap;html=1;fillColor=#f8cecc;strokeColor=#b85450;" vertex="1" parent="1">
          <mxGeometry x="300" y="45" width="20" height="20" as="geometry" />
        </mxCell>
        <mxCell id="RTe3zMk_DoGeZvPEv-I7-18" value="" style="endArrow=classic;html=1;rounded=0;exitX=0.5;exitY=0;exitDx=0;exitDy=0;endFill=1;entryX=0;entryY=1;entryDx=0;entryDy=0;" edge="1" parent="1" source="RTe3zMk_DoGeZvPEv-I7-4" target="RTe3zMk_DoGeZvPEv-I7-14">
          <mxGeometry width="50" height="50" relative="1" as="geometry">
            <mxPoint x="290" y="105" as="sourcePoint" />
            <mxPoint x="220" y="65" as="targetPoint" />
          </mxGeometry>
        </mxCell>
        <mxCell id="RTe3zMk_DoGeZvPEv-I7-23" value="" style="endArrow=classic;html=1;rounded=0;entryX=0;entryY=0.5;entryDx=0;entryDy=0;exitX=0.057;exitY=-0.333;exitDx=0;exitDy=0;exitPerimeter=0;" edge="1" parent="1" target="RTe3zMk_DoGeZvPEv-I7-2">
          <mxGeometry width="50" height="50" relative="1" as="geometry">
            <mxPoint x="118.99000000000001" y="115.00999999999999" as="sourcePoint" />
            <mxPoint x="240" y="205" as="targetPoint" />
          </mxGeometry>
        </mxCell>
        <mxCell id="RTe3zMk_DoGeZvPEv-I7-24" value="&lt;font style=&quot;font-size: 14px;&quot;&gt;&lt;b&gt;branche de votre collÃ¨gue&lt;/b&gt;&lt;/font&gt;" style="text;html=1;align=center;verticalAlign=middle;resizable=0;points=[];autosize=1;strokeColor=none;fillColor=none;" vertex="1" parent="1">
          <mxGeometry x="50" y="155" width="200" height="30" as="geometry" />
        </mxCell>
        <mxCell id="RTe3zMk_DoGeZvPEv-I7-30" style="edgeStyle=orthogonalEdgeStyle;rounded=0;orthogonalLoop=1;jettySize=auto;html=1;exitX=1;exitY=0.5;exitDx=0;exitDy=0;entryX=0;entryY=0.5;entryDx=0;entryDy=0;" edge="1" parent="1" source="RTe3zMk_DoGeZvPEv-I7-25" target="RTe3zMk_DoGeZvPEv-I7-28">
          <mxGeometry relative="1" as="geometry" />
        </mxCell>
        <mxCell id="RTe3zMk_DoGeZvPEv-I7-25" value="" style="ellipse;whiteSpace=wrap;html=1;fillColor=#fff2cc;strokeColor=#d6b656;" vertex="1" parent="1">
          <mxGeometry x="270" y="160" width="20" height="20" as="geometry" />
        </mxCell>
        <mxCell id="RTe3zMk_DoGeZvPEv-I7-31" style="rounded=0;orthogonalLoop=1;jettySize=auto;html=1;exitX=1;exitY=0;exitDx=0;exitDy=0;entryX=0;entryY=1;entryDx=0;entryDy=0;" edge="1" parent="1" source="RTe3zMk_DoGeZvPEv-I7-28" target="RTe3zMk_DoGeZvPEv-I7-29">
          <mxGeometry relative="1" as="geometry" />
        </mxCell>
        <mxCell id="RTe3zMk_DoGeZvPEv-I7-28" value="" style="ellipse;whiteSpace=wrap;html=1;fillColor=#fff2cc;strokeColor=#d6b656;" vertex="1" parent="1">
          <mxGeometry x="320" y="160" width="20" height="20" as="geometry" />
        </mxCell>
        <mxCell id="RTe3zMk_DoGeZvPEv-I7-29" value="" style="ellipse;whiteSpace=wrap;html=1;fillColor=#d5e8d4;strokeColor=#82b366;" vertex="1" parent="1">
          <mxGeometry x="360" y="105" width="20" height="20" as="geometry" />
        </mxCell>
        <mxCell id="RTe3zMk_DoGeZvPEv-I7-32" value="" style="ellipse;whiteSpace=wrap;html=1;fillColor=#f8cecc;strokeColor=#b85450;" vertex="1" parent="1">
          <mxGeometry x="360" y="45" width="20" height="20" as="geometry" />
        </mxCell>
        <mxCell id="RTe3zMk_DoGeZvPEv-I7-35" value="" style="endArrow=none;dashed=1;html=1;rounded=0;strokeWidth=3;strokeColor=#B3B3B3;" edge="1" parent="1">
          <mxGeometry width="50" height="50" relative="1" as="geometry">
            <mxPoint x="40" y="145" as="sourcePoint" />
            <mxPoint x="460" y="145" as="targetPoint" />
          </mxGeometry>
        </mxCell>
      </root>
    </mxGraphModel>
  </diagram>
</mxfile>
